<?xml version="1.0" encoding="iso-8859-1"?>
<!-- Generator: Adobe Illustrator 19.0.0, SVG Export Plug-In . SVG Version: 6.00 Build 0)  -->
<svg version="1.1" id="Layer_1" xmlns="http://www.w3.org/2000/svg" xmlns:xlink="http://www.w3.org/1999/xlink" x="0px" y="0px"
	 viewBox="0 0 512 512" style="enable-background:new 0 0 512 512;" xml:space="preserve">
<path style="fill:#ECEDEF;" d="M344.893,17.729c0-9.289-7.531-16.819-16.819-16.819H17.089C7.801,0.909,0.27,8.44,0.27,17.729
	v476.544c0,9.289,7.531,16.819,16.819,16.819h310.985c9.289,0,16.819-7.531,16.819-16.819V17.729z"/>
<path style="fill:#D9D8DB;" d="M344.893,17.729c0-9.289-7.531-16.819-16.819-16.819H173.74v510.182h154.334
	c9.289,0,16.819-7.531,16.819-16.819V17.729z"/>
<g>
	<path style="fill:#797882;" d="M149.416,97.339H64.326c-7.921,0-14.341-7.531-14.341-16.819s6.42-16.819,14.341-16.819h85.091
		c7.921,0,14.341,7.531,14.341,16.819S157.337,97.339,149.416,97.339z"/>
	<path style="fill:#797882;" d="M275.74,275.996H69.424c-9.289,0-16.819-7.531-16.819-16.819c0-9.289,7.531-16.819,16.819-16.819
		H275.74c9.289,0,16.819,7.531,16.819,16.819C292.559,268.466,285.028,275.996,275.74,275.996z"/>
	<path style="fill:#797882;" d="M275.74,355.982H69.424c-9.289,0-16.819-7.531-16.819-16.819c0-9.289,7.531-16.819,16.819-16.819
		H275.74c9.289,0,16.819,7.531,16.819,16.819C292.559,348.451,285.028,355.982,275.74,355.982z"/>
</g>
<path style="fill:#ACACB2;" d="M330.404,413.106c-2.604-6.285-8.737-10.383-15.539-10.383h-60.009
	c-9.289,0-16.819,7.531-16.819,16.819v60.009c0,6.803,4.098,12.935,10.383,15.539c2.081,0.862,4.266,1.28,6.433,1.28
	c4.377,0,8.68-1.708,11.897-4.927l60.009-60.009C331.568,426.626,333.007,419.391,330.404,413.106z"/>
<path style="fill:#C9C9CB;" d="M453.285,9.497c0-5.245-4.252-9.497-9.497-9.497h-20.652c-5.245,0-9.497,4.252-9.497,9.497v53.781
	h39.646V9.497z"/>
<path style="fill:#A8A8AA;" d="M453.286,9.497c0-5.245-4.252-9.497-9.497-9.497h-10.326v63.278h19.823V9.497z"/>
<path style="fill:#124D7A;" d="M482.546,66.794c0-5.245-4.252-9.497-9.497-9.497h-79.172c-5.245,0-9.497,4.252-9.497,9.497V400.15
	c0,1.989,0.366,3.951,1.065,5.73l39.398,100.024c1.395,3.541,4.814,5.87,8.62,5.87s7.226-2.328,8.62-5.87l39.398-100.024
	c0.7-1.778,1.065-3.741,1.065-5.73V66.794H482.546z"/>
<path style="fill:#09406B;" d="M482.546,57.295h-49.084V512c3.752,0,7.122-2.295,8.497-5.786l39.521-100.336
	c0.7-1.778,1.065-3.741,1.065-5.73V57.295H482.546z"/>
<g>
	<path style="fill:#C9C9CB;" d="M501.663,271.928c-5.56,0-10.068-4.508-10.068-10.068V117.14H383.98
		c-5.004,0-9.061-4.057-9.061-9.061v-7.472c0-5.004,4.057-9.061,9.061-9.061h117.682c5.56,0,10.068,4.508,10.068,10.068v160.249
		C511.73,267.421,507.222,271.928,501.663,271.928z"/>
	<path style="fill:#C9C9CB;" d="M384.378,399.39v0.759c0,1.989,0.366,3.951,1.065,5.73l39.398,100.024
		c1.395,3.541,4.814,5.87,8.62,5.87s7.226-2.328,8.62-5.87l39.398-100.024c0.7-1.778,1.065-3.741,1.065-5.73v-0.759L384.378,399.39
		L384.378,399.39z"/>
</g>
<path style="fill:#A8A8AA;" d="M433.462,399.39V512c3.752,0,7.122-2.295,8.497-5.786l39.521-100.336
	c0.7-1.778,1.065-3.741,1.065-5.73v-0.759H433.462z"/>
<rect x="384.319" y="117.14" style="fill:#083A61;" width="98.235" height="19.903"/>
<path style="fill:#57565C;" d="M275.74,355.982H69.424c-9.289,0-16.819-7.531-16.819-16.819c0-9.289,7.531-16.819,16.819-16.819
	H275.74c9.289,0,16.819,7.531,16.819,16.819C292.559,348.451,285.028,355.982,275.74,355.982z"/>
<path style="fill:#797882;" d="M173.74,322.343H69.424c-9.289,0-16.819,7.531-16.819,16.819c0,9.289,7.531,16.819,16.819,16.819
	H173.74V322.343z"/>
<path style="fill:#57565C;" d="M275.74,196.012H69.424c-9.289,0-16.819-7.531-16.819-16.819s7.531-16.819,16.819-16.819H275.74
	c9.289,0,16.819,7.531,16.819,16.819S285.028,196.012,275.74,196.012z"/>
<path style="fill:#797882;" d="M173.74,162.374H69.424c-9.289,0-16.819,7.531-16.819,16.819s7.531,16.819,16.819,16.819H173.74
	V162.374z"/>
<path style="fill:#57565C;" d="M275.74,275.996H69.424c-9.289,0-16.819-7.531-16.819-16.819c0-9.289,7.531-16.819,16.819-16.819
	H275.74c9.289,0,16.819,7.531,16.819,16.819C292.559,268.466,285.028,275.996,275.74,275.996z"/>
<path style="fill:#797882;" d="M173.74,242.358H69.424c-9.289,0-16.819,7.531-16.819,16.819c0,9.289,7.531,16.819,16.819,16.819
	H173.74V242.358z"/>
<g>
</g>
<g>
</g>
<g>
</g>
<g>
</g>
<g>
</g>
<g>
</g>
<g>
</g>
<g>
</g>
<g>
</g>
<g>
</g>
<g>
</g>
<g>
</g>
<g>
</g>
<g>
</g>
<g>
</g>
</svg>
